<?xml version="1.0" standalone="no"?>
<!DOCTYPE svg PUBLIC "-//W3C//DTD SVG 20010904//EN"
 "http://www.w3.org/TR/2001/REC-SVG-20010904/DTD/svg10.dtd">
<svg version="1.0" xmlns="http://www.w3.org/2000/svg"
 width="615.000000pt" height="169.000000pt" viewBox="0 0 615.000000 169.000000"
 preserveAspectRatio="xMidYMid meet">

<g transform="translate(0.000000,169.000000) scale(0.100000,-0.100000)"
fill="#000000" stroke="none">
<path d="M367 1601 c-16 -10 -42 -34 -58 -54 -16 -19 -48 -46 -72 -60 -47 -28
-97 -91 -97 -123 1 -34 37 -102 60 -109 12 -4 37 -4 56 0 19 3 34 3 34 -1 0
-3 -12 -44 -26 -90 -33 -104 -30 -154 14 -245 36 -74 38 -102 25 -341 -6 -119
-7 -127 -27 -130 -14 -2 -24 -14 -31 -36 -6 -21 -15 -32 -27 -32 -16 0 -18
-11 -18 -125 l0 -125 405 0 405 0 0 125 0 125 -29 0 -30 0 -3 233 c-3 230 -3
232 -30 277 -43 74 -125 143 -236 199 -57 29 -103 58 -106 68 -3 10 -12 59
-21 109 -21 124 -41 188 -70 222 -14 17 -25 40 -25 52 0 24 -17 61 -34 72 -17
12 -29 9 -59 -11z m30 -121 c-6 -51 -4 -62 9 -67 9 -3 25 -1 34 5 16 9 19 5
29 -33 19 -76 17 -82 -39 -94 -71 -15 -83 -14 -98 10 -12 18 -21 21 -62 17
-46 -5 -50 -3 -58 21 -12 34 15 74 68 101 21 11 52 37 70 60 44 56 54 52 47
-20z m103 -257 c0 -10 3 -28 6 -40 5 -19 0 -23 -33 -32 -21 -6 -64 -13 -95
-17 -65 -8 -67 -5 -44 51 13 30 20 35 48 36 18 1 44 5 58 9 42 13 60 11 60 -7z
m55 -133 c3 -5 55 -35 115 -66 122 -62 187 -122 208 -192 8 -25 12 -115 12
-246 l0 -206 -155 0 c-92 0 -155 4 -155 10 0 5 15 12 34 15 l33 7 -54 141
c-81 210 -89 227 -112 227 -25 0 -30 -18 -67 -234 l-29 -166 -44 0 c-44 0 -48
14 -6 22 18 3 21 14 26 93 4 50 7 154 8 233 1 132 -1 146 -23 190 -13 26 -30
66 -37 90 -15 52 -7 61 56 63 22 0 63 7 90 14 63 16 92 18 100 5z m-26 -541
c36 -94 35 -89 17 -89 -16 0 -26 -21 -26 -56 0 -21 -5 -24 -35 -24 -41 0 -40
-4 -20 115 18 109 24 135 29 135 2 0 18 -36 35 -81z m421 -294 l0 -65 -345 0
-345 0 0 58 c0 32 3 62 7 65 3 4 159 7 345 7 l338 0 0 -65z"/>
<path d="M5740 1605 c-6 -8 -14 -32 -17 -55 -3 -22 -10 -40 -15 -40 -20 0 -58
-111 -79 -230 -12 -69 -26 -131 -32 -138 -6 -8 -56 -36 -110 -64 -114 -57
-195 -129 -230 -205 -20 -44 -22 -67 -25 -275 l-4 -228 -29 0 -29 0 0 -125 0
-125 400 0 400 0 0 125 c0 96 -3 125 -13 125 -7 0 -19 16 -26 35 -8 23 -19 35
-30 35 -27 0 -31 26 -31 231 l0 187 32 68 c39 83 41 158 9 248 -28 80 -28 87
9 80 56 -12 77 1 100 63 l21 57 -29 40 c-16 23 -49 55 -73 71 -24 17 -67 54
-95 83 -52 53 -82 64 -104 37z m83 -100 c16 -20 47 -48 70 -63 53 -34 76 -61
77 -88 0 -32 -21 -44 -65 -37 -33 5 -41 3 -59 -19 -20 -25 -23 -25 -79 -13
-31 6 -61 16 -66 21 -9 9 9 98 22 111 4 3 13 0 22 -7 29 -24 44 4 38 70 -3 33
-2 60 3 60 5 0 22 -16 37 -35z m-93 -274 c19 -5 51 -12 71 -15 32 -6 37 -11
48 -47 7 -23 11 -43 8 -45 -6 -7 -169 24 -179 34 -10 10 0 82 11 82 3 0 22 -4
41 -9z m53 -159 l98 -16 -6 -31 c-4 -16 -20 -59 -36 -94 l-29 -63 0 -213 c0
-223 6 -265 39 -265 11 0 23 -4 26 -10 4 -6 -11 -10 -37 -10 l-43 0 -29 166
c-15 91 -32 181 -37 199 -10 34 -28 48 -47 36 -11 -7 -142 -339 -142 -360 0
-5 12 -11 27 -13 14 -2 28 -9 31 -15 3 -10 -32 -13 -152 -13 l-156 0 0 195 c0
250 6 279 76 354 41 44 75 69 141 101 49 23 99 51 113 62 15 12 32 17 45 13
11 -4 64 -14 118 -23z m-74 -568 c12 -67 21 -124 21 -128 0 -3 -16 -6 -35 -6
-30 0 -35 3 -35 24 0 35 -10 56 -26 56 -8 0 -14 3 -14 7 0 11 63 174 66 171 1
-2 12 -58 23 -124z m201 -259 l0 -65 -340 0 -340 0 0 65 0 65 340 0 340 0 0
-65z"/>
<path d="M4724 972 c-62 -19 -116 -96 -118 -167 -1 -53 35 -124 76 -152 18
-11 69 -31 113 -43 117 -31 125 -38 125 -111 0 -97 -20 -121 -125 -148 -58
-16 -71 -14 -99 14 -47 47 -40 91 21 132 18 12 23 12 37 -2 14 -14 23 -65 12
-65 -2 0 -13 -3 -23 -7 -16 -6 -16 -5 -4 10 16 20 9 32 -14 23 -25 -9 -30 -37
-10 -52 26 -19 42 -17 65 6 45 45 9 140 -52 140 -45 0 -98 -37 -118 -83 -18
-39 -18 -42 0 -76 54 -105 150 -137 262 -87 114 50 178 179 136 270 -14 32
-75 62 -160 80 -82 17 -101 28 -127 70 -39 62 -18 169 36 182 33 9 127 -10
159 -31 27 -17 67 -102 60 -127 -4 -18 9 -25 18 -10 5 8 20 91 35 190 9 59 -5
70 -33 27 -10 -16 -26 -25 -42 -25 -13 0 -51 11 -84 25 -58 24 -104 30 -146
17z"/>
<path d="M2190 953 c-30 -13 -74 -14 -292 -8 -155 4 -258 3 -258 -3 0 -5 18
-17 41 -27 23 -11 48 -29 56 -41 15 -23 29 -156 39 -379 l6 -120 -31 -39 c-17
-21 -31 -42 -31 -45 0 -4 -13 -12 -30 -18 -24 -9 -30 -17 -30 -41 0 -37 25
-60 48 -46 26 17 28 37 2 29 -18 -6 -21 -3 -18 12 5 27 44 29 58 3 15 -29 7
-46 -30 -65 -43 -22 -88 -12 -101 23 -6 15 -8 55 -4 92 14 142 12 150 -40 197
-43 40 -45 43 -22 43 59 0 124 104 134 212 6 66 -17 125 -68 174 l-30 29 -235
2 c-129 0 -234 -3 -234 -8 0 -4 18 -14 40 -20 22 -7 44 -17 49 -23 11 -14 29
-190 36 -368 5 -106 3 -138 -7 -147 -52 -42 -82 -70 -78 -73 10 -9 223 21 234
32 8 9 7 14 -3 18 -8 3 -25 15 -38 28 -19 19 -23 34 -23 89 0 62 1 65 23 61
12 -3 41 -7 65 -11 53 -7 110 -42 119 -74 3 -13 3 -62 -1 -110 -11 -129 -11
-132 35 -175 40 -38 41 -38 109 -34 49 2 74 9 89 22 28 25 28 85 1 113 -17 19
-18 22 -2 28 82 31 436 40 394 9 -25 -19 -13 -23 38 -14 25 5 70 9 101 10 76
0 149 11 149 21 0 5 -6 9 -13 9 -7 0 -21 6 -31 13 -18 13 -17 16 10 63 45 79
104 164 114 164 4 0 39 -48 76 -106 l68 -107 -32 -27 c-40 -33 -41 -43 -4 -35
30 6 58 7 257 6 178 -1 223 17 141 57 -57 27 -76 63 -83 157 -5 69 -5 72 18
78 13 4 45 7 71 7 54 0 61 -9 94 -112 21 -68 39 -77 29 -15 -4 23 -8 108 -7
190 0 81 -4 147 -8 147 -4 0 -15 -25 -25 -55 -25 -81 -41 -96 -110 -106 -33
-4 -61 -7 -62 -5 -8 7 -15 158 -9 189 8 43 26 49 154 48 79 -1 98 -5 130 -25
35 -22 39 -30 51 -92 17 -92 21 -104 32 -104 5 0 10 24 10 53 l2 52 7 -55 c5
-30 11 -116 15 -190 l7 -135 -31 -39 c-41 -51 -40 -60 7 -52 142 26 229 33
351 28 l134 -5 -7 39 c-4 22 -11 76 -15 122 -11 122 -20 122 -68 -3 -14 -38
-31 -76 -38 -82 -6 -7 -49 -16 -98 -19 -72 -6 -94 -4 -127 11 -43 19 -54 46
-53 130 1 78 -1 75 51 75 60 0 89 -20 98 -68 8 -45 22 -74 33 -68 4 3 11 70
15 148 3 79 9 157 12 173 10 46 -10 20 -41 -55 -15 -36 -34 -71 -43 -77 -9 -7
-40 -13 -69 -13 l-53 0 1 58 c1 31 4 84 8 117 l6 60 50 12 c77 17 165 16 205
-5 28 -13 37 -25 44 -57 5 -22 15 -58 21 -80 l13 -40 10 40 c18 66 40 229 33
237 -3 4 -20 0 -36 -8 -26 -14 -63 -15 -287 -9 -235 6 -260 5 -275 -11 -15
-15 -33 -16 -153 -11 -74 3 -153 11 -174 17 -30 9 -71 9 -177 -1 -77 -7 -139
-16 -139 -21 0 -4 20 -13 44 -19 25 -6 47 -18 50 -26 6 -15 -20 -58 -62 -103
-13 -14 -31 -37 -40 -52 -9 -16 -20 -28 -24 -28 -12 0 -93 107 -123 162 l-26
48 38 22 38 23 -104 3 c-58 1 -110 7 -115 12 -7 5 -25 2 -46 -7z m83 -68 c18
-9 68 -61 113 -118 104 -131 107 -137 86 -169 -69 -104 -98 -141 -157 -203
-66 -69 -67 -70 -77 -45 -5 14 -13 64 -17 113 -11 127 -19 128 -68 2 -14 -38
-32 -76 -38 -83 -7 -7 -47 -15 -98 -19 -72 -5 -94 -3 -127 12 -43 19 -54 46
-53 130 1 78 -1 75 51 75 60 0 89 -20 98 -68 8 -46 31 -82 38 -61 2 8 7 75 10
149 4 74 9 149 12 165 10 46 -10 20 -41 -55 -15 -36 -34 -71 -43 -77 -9 -7
-40 -13 -69 -13 l-53 0 1 58 c1 31 4 84 8 117 l6 60 50 12 c133 30 232 7 248
-57 27 -108 31 -120 40 -104 5 8 13 45 18 82 11 83 18 112 25 112 3 0 20 -7
37 -15z m585 -29 c12 -36 13 -91 8 -291 -1 -49 1 -109 4 -132 6 -36 3 -46 -16
-64 -20 -19 -26 -20 -59 -9 -36 12 -55 33 -155 171 -25 34 -51 70 -58 79 -13
18 -1 40 112 189 36 49 117 104 141 97 6 -1 16 -19 23 -40z m-1322 14 c36 -14
57 -65 58 -145 2 -102 -13 -131 -79 -150 -63 -18 -107 -18 -155 -1 -44 16 -54
56 -45 176 8 112 13 128 38 133 33 5 157 -4 183 -13z"/>
<path d="M3830 930 c0 -5 15 -16 33 -23 57 -25 70 -49 72 -130 2 -117 -11
-391 -20 -410 -4 -10 -24 -29 -43 -42 -52 -36 -26 -40 136 -21 175 20 221 20
273 0 32 -13 56 -15 117 -9 103 10 107 10 180 2 75 -10 81 2 17 34 -25 13 -52
30 -60 39 -24 27 -41 211 -37 408 l2 92 40 28 c21 15 39 31 40 35 0 8 -241 -2
-250 -10 -3 -2 3 -9 14 -15 10 -6 32 -23 49 -38 l31 -28 4 -198 c3 -228 -2
-269 -41 -297 -14 -12 -28 -19 -31 -16 -4 5 -13 77 -22 179 -3 41 -7 86 -8
100 -3 32 -20 38 -24 8 -1 -13 -12 -62 -23 -110 -27 -111 -44 -128 -133 -135
-76 -7 -124 9 -131 41 -29 144 -33 180 -30 241 5 74 21 157 38 190 5 11 25 37
45 58 l36 37 -137 0 c-83 0 -137 -4 -137 -10z"/>
</g>
</svg>
